<?xml version="1.0" encoding="utf-8"?>
<!-- Generator: Adobe Illustrator 22.1.0, SVG Export Plug-In . SVG Version: 6.00 Build 0)  -->
<svg version="1.1" id="Layer_1" xmlns="http://www.w3.org/2000/svg" xmlns:xlink="http://www.w3.org/1999/xlink" x="0px" y="0px"
	 viewBox="0 0 321 123" style="enable-background:new 0 0 321 123;" xml:space="preserve">
<style type="text/css">
	.st0{fill:#E0E1E2;}
</style>
<g>
	<path class="st0" d="M252,71.2c-0.1-1.8-0.2-3.5-0.3-5.3c6.3,0.9,12.6,1.8,18.7,2.6c-0.1-0.1-0.4-0.2-0.8-0.4
		c-2.7-1.4-5.4-2.8-8-4.3c-2.3-1.3-3.6-3.4-4.1-6c-0.2-0.9-0.2-1.8-0.3-2.6c-2.1,0.6-4,1.2-6,1.7c-0.2-4.5-0.5-8.9-0.6-13.4
		c-0.1-5.6-0.5-11.2,0-16.8c0.5-6.1,3.7-11,9.4-13.8c1.2-0.6,2.5-0.9,3.8-1.3c1-0.3,0.3-1,0.5-1.5c-0.3-0.1-0.6-0.3-0.9-0.3
		c-7,0.4-14,0.9-20.9,1.3c-1.5,0.1-1.5,0-1.5,1.6c0.3,6.5,0.6,13,0.9,19.5c0.4,9.4,0.9,18.8,1.3,28.2c0.5,9.8,0.9,19.6,1.3,29.5
		c0.3,7.6,0.7,15.3,1,22.9c0,0.9,0.4,1,1.2,1.1c6.4,0.3,12.8,0.6,19.2,1.1c1.2,0.1,1.3-0.2,1.3-1.2c0-1-0.8-0.7-1.3-0.8
		c-4.3-0.9-7.6-3.2-9.5-7.1c-1.2-2.4-2.1-5-2.6-7.6c-1.5-7-1.4-14.1-1.7-21.2c2.3,0.2,4.5,0.4,6.8,0.7c6.5,0.8,12.9,2.3,19.1,4.3
		c9.5,3.2,18.3,7.7,26,14.2c1.6,1.3,3,2.9,4.6,4.2c0.6,0.5,1.7,0.4,2.5,0.5c-0.1-0.6-0.1-1.2-0.3-1.7c-1.5-4.1-4-7.4-7.1-10.3
		c-5-4.6-11-7.8-17.3-10.4C275.6,73.8,263.9,72.3,252,71.2z"/>
	<path class="st0" d="M144.6,75.9c6.7,0,13.3,0,20-0.1c0.6,0,1.3,0,2,0c-0.8-1.7-1.5-3.2-2.2-4.8c-0.3-0.7-0.7-1-1.5-1
		c-5.1,0-10.2,0-15.3,0c-0.9,0-1.8-0.1-2.8-0.1c0.1-1.6,0.2-3.1,0.2-4.7c5.5,0,11,0,16.7,0c-0.8-1.8-1.6-3.3-2.2-4.9
		c-0.3-0.7-0.7-1-1.5-1c-4.2,0-8.5,0-12.7,0c0.4-10,0.9-19.9,1.3-29.9c0.1,0,0.2,0,0.2,0c13.4,28.5,26.8,57,40.2,85.6
		c1.4-2.9,2.7-5.6,4-8.3c0.4-0.8,0.4-1.4,0-2.2c-4.5-9.6-9-19.2-13.6-28.8c1.7,0,3.3,0,5-0.1c0.5,0,0.9,0,0.6-0.7
		c-0.7-1.5-1.4-3-2.1-4.5c-0.1-0.3-0.5-0.5-0.8-0.5c-1.7,0-3.4,0-5.1,0.1c-0.8-1.6-1.6-3.3-2.4-4.9c1.9,0,3.8,0,5.9,0
		c-0.9-1.9-1.6-3.6-2.5-5.3c-0.1-0.2-0.5-0.4-0.8-0.4c-1.7,0-3.4,0-5.2,0c-0.2-0.3-0.5-0.6-0.6-1c-3.6-7.7-7.3-15.4-10.9-23.2
		c-3.7-7.8-7.3-15.5-11-23.3c-0.2-0.4-0.7-0.9-1-0.9c-2.9-0.2-5.7-0.4-8.6-0.5c-4.5-0.3-9-0.4-13.5-0.8c-1.3-0.1-1.4,0.3-1.2,1.2
		c0.1,0.4,0.6,0.7,1,0.8c5.7,1.5,10.7,4.2,14.6,8.7c0.3,0.4,0.6,1,0.6,1.5c-0.2,6.9-0.5,13.8-0.8,20.7c-0.5,12.8-1.1,25.6-1.7,38.5
		c-0.2,5.3-0.2,10.6-1.4,15.9c-1.6,7-4.2,13.4-11.8,16c-0.3,0.1-0.3,1-0.5,1.6c0.3,0.1,0.7,0.3,1,0.2c3.1-0.3,6.2-0.5,9.3-0.8
		c7.5-0.7,15,0.2,22.5,0.8c1.1,0.1,1.2-0.1,1.2-1.1c0-1.1-0.9-0.8-1.3-0.9c-4.9-1-8.3-3.8-10.2-8.5c-1.3-3.4-1.7-6.9-1.6-10.5
		C144.1,88,144.3,81.9,144.6,75.9z"/>
	<path class="st0" d="M236.2,59c-0.3-7.3-0.6-14.6-1-21.9c-0.4-8.4-0.8-16.7-1.1-25c0-0.7-0.3-0.8-0.8-0.8c-1.8,0-3.7,0.1-5.5,0
		c-0.9,0-1.3,0.3-1.7,1.1C216,34.2,206,56,195.9,77.8c-0.2,0.4-0.4,0.7-0.6,1.3c-0.5-1.3-1-2.3-1.4-3.3c0.4-0.1,1.1-0.1,1.2-0.4
		c0.9-1.7,1.7-3.5,2.5-5.3c-2.2,0-4.3,0-6.3,0c-0.8-1.6-1.6-3.3-2.4-4.9c3.3,0,6.7,0,10.1,0c0.4,0,1-0.1,1.1-0.4
		c0.9-1.7,1.6-3.5,2.5-5.3c-5.5,0-10.9,0-16.3,0c-0.2-0.4-0.5-0.7-0.7-1.1c-3.5-7.5-7-14.9-10.6-22.4c-3.8-8-7.5-15.9-11.3-23.9
		c-0.2-0.4-0.7-0.9-1-0.9c-2.5-0.1-5,0-7.7,0c13.5,28.7,26.9,57.2,40.4,86c3.2-7,6.3-13.7,9.3-20.4c0.2-0.4,0.5-0.7,0.7-1.1
		c6.8,0,13.7,0,20.5,0c0.2,0,0.6-0.4,0.6-0.7c0.1-1.3,0-2.6,0-4c0-0.8-0.2-1-1-1c-1.7,0-3.3,0-5,0c-4.2,0-8.5-0.1-12.7-0.1
		c0.8-1.6,1.6-3.2,2.3-4.8c5.2,0,10.4,0,15.6,0.1c0.7,0,0.8-0.2,0.8-0.8c0-1.2-0.1-2.5,0-3.7c0.1-1-0.2-1.3-1.2-1.3
		c-4.2,0-8.5,0-12.7,0c4.6-10,9.2-20,13.7-30c0.1,0,0.2,0,0.3,0.1c0,0.7,0,1.3,0,2c0.3,8,0.7,15.9,1,23.8
		c0.5,12.2,1.1,24.4,1.5,36.5c0.1,3.1-0.3,6.2-0.9,9.3c-1.1,5.3-3.9,9.6-9.3,11.6c-1.6,0.6-1.6,0.6-1.4,2.1
		c6.1-0.3,12.2-0.6,18.3-0.9c2.6-0.1,2.6,0,2.5-2.7c-0.5-11.7-1.1-23.5-1.6-35.2c1.4,0,2.8,0,4.2,0c0.6,0,0.8,0,0.8-0.7
		c0-1.4,0-2.7,0-4.1c0-0.7-0.3-0.9-0.9-0.9c-1.4,0-2.9-0.1-4.3-0.1c-0.1-1.6-0.2-3.3-0.3-4.9c1.5,0,3.1-0.1,4.6,0
		c0.7,0,0.9-0.2,0.9-0.9c0-1.7,0-3.4,0-5c0-0.7-0.2-0.9-0.9-0.8C239.5,58.9,237.9,58.9,236.2,59z"/>
	<path class="st0" d="M111.4,29.5c-0.1,0-0.2,0-0.2,0c0.3-4.3,0.5-8.5,0.8-12.8c0.1-0.9-0.2-1.3-1.1-1.6c-9.9-3.4-20.1-5.4-30.6-5.7
		C73.6,9.2,67,9.7,60.5,11.5c-13.6,3.9-23.8,11.8-29.9,24.8c-3,6.4-4.3,13.2-4.8,20.1c-0.6,8.9-0.2,17.7,2.2,26.4
		c3.5,12.5,10.7,22,22.3,27.9c7.2,3.6,14.9,5.1,22.9,5.3c12.4,0.4,24.2-2.1,35.7-6.5c0.3-0.1,0.6-0.6,0.7-0.9
		c1-4.8,1.9-9.6,2.8-14.5c0.3-1.4,0.2-1.5-1.2-1.3c-0.4,0.1-0.7,0.4-1,0.7c-2.5,2.2-4.7,4.7-7.4,6.6c-9.5,6.7-20.2,9.2-31.7,8.4
		c-5.9-0.4-11.5-1.6-16.8-4.4C46.3,99.9,41.1,93.1,38,84.7c-5.3-14.6-5-29.3,0.2-43.9c3.5-9.8,10.3-16.9,19.9-21
		c8.4-3.5,17.1-4.1,26-2.4c8.8,1.7,15.5,6.6,19.9,14.4c2.4,4.1,3.9,8.6,4.9,13.2c0.2,0.8,0.4,1.2,1.3,1.1c1-0.1,0.7-0.8,0.7-1.2
		C111.1,39.7,111.2,34.6,111.4,29.5z"/>
	<path class="st0" d="M29,25.4c-0.1,0.1-0.3,0.1-0.4,0.2c-5,2.9-9.3,6.7-12.2,11.8c-3.7,6.4-6,13.3-6.6,20.7
		c-0.9,10.2,0.5,20.1,5,29.4c3.5,7.2,8.4,13.2,15.7,16.9c0.3,0.2,0.7,0.3,1,0.5c-0.1-0.4-0.2-0.6-0.4-0.8c-3.5-3.9-6.1-8.3-8-13.1
		c-2.7-6.9-4-14-4.4-21.4c-0.5-9.6,0-19.1,2.8-28.3C23.1,35.5,25.6,30.2,29,25.4z"/>
	<path class="st0" d="M124.5,70.1c-3.5,0-7,0-10.4,0c-0.7,0-0.9,0.2-1,0.9c-0.2,2.1-0.4,4.2-0.7,6.3c-0.3,2.2-0.5,4.4-0.8,6.6
		c0,0.2-0.1,0.5,0,0.7c0.3,0.4,2.9,0,3.1-0.5c1.7-3.4,4.6-5.3,8.1-6.4c3.9-1.2,7.9-1.4,11.9-1.6c0.9,0,1.2-0.3,1.1-1.1
		c-0.1-1.2-0.1-2.5,0-3.7c0-0.9-0.2-1.2-1.1-1.1C131.4,70.1,127.9,70.1,124.5,70.1z"/>
	<path class="st0" d="M111.7,50.4c0.5,4.8,1,9.5,1.5,14.3c0,0.2,0.5,0.5,0.7,0.5c7.1,0,14.2,0,21.3,0c0.6,0,0.8-0.2,0.7-0.8
		c0-1.3-0.1-2.6,0-4c0.1-1-0.3-1.2-1.2-1.3c-3.6-0.3-7.1-0.6-10.6-1.2c-3.8-0.7-7.3-2.4-9.1-6c-0.7-1.5-1.6-1.8-3-1.6
		C111.9,50.4,111.8,50.4,111.7,50.4z"/>
	<path class="st0" d="M31.9,104.7C31.9,104.7,31.8,104.7,31.9,104.7c-0.1-0.1-0.1,0-0.1,0C31.8,104.7,31.8,104.8,31.9,104.7
		C31.8,104.8,31.9,104.7,31.9,104.7z"/>
	<path class="st0" d="M210.3,65.2c-0.8,1.6-1.6,3.2-2.3,4.8c-0.8,1.9-1.6,3.8-2.5,5.7c-0.2,0.4-0.5,0.7-0.7,1.1
		c-3.1,6.7-6.2,13.4-9.3,20.4c-13.5-28.7-26.9-57.3-40.4-86c2.7,0,5.2,0,7.7,0c0.3,0,0.8,0.5,1,0.9c3.8,8,7.5,15.9,11.3,23.9
		c3.5,7.5,7,14.9,10.6,22.4c0.2,0.4,0.4,0.7,0.7,1.1c0.9,1.9,1.8,3.8,2.6,5.7c0.8,1.6,1.6,3.3,2.4,4.9c0.9,1.9,1.7,3.8,2.6,5.6
		c0.4,1,0.9,2,1.4,3.3c0.3-0.5,0.5-0.9,0.6-1.3C206,56,216,34.2,226.1,12.3c0.4-0.8,0.8-1.1,1.7-1.1c1.8,0.1,3.7,0,5.5,0
		c0.6,0,0.8,0.1,0.8,0.8c0.4,8.4,0.8,16.7,1.1,25c0.3,7.3,0.7,14.6,1,21.9c0.1,2.2,0.2,4.4,0.3,6.6c0.1,1.6,0.2,3.3,0.3,4.9
		c0.1,1.9,0.1,3.8,0.2,5.7c0.5,11.7,1.1,23.5,1.6,35.2c0.1,2.6,0.1,2.6-2.5,2.7c-6.1,0.2-12.2,0.6-18.3,0.9
		c-0.3-1.4-0.3-1.4,1.4-2.1c5.4-2,8.2-6.3,9.3-11.6c0.6-3,1-6.2,0.9-9.3c-0.4-12.2-1-24.4-1.5-36.5c-0.3-8-0.7-15.9-1-23.8
		c0-0.7,0-1.3,0-2c-0.1,0-0.2,0-0.3-0.1c-4.6,10-9.2,20-13.7,30C211.9,61.3,211.1,63.3,210.3,65.2z"/>
	<path class="st0" d="M111.4,29.5c-0.2,5.1-0.3,10.2-0.5,15.3c0,0.5,0.3,1.2-0.7,1.2c-0.9,0.1-1.1-0.3-1.3-1.1
		c-1-4.6-2.5-9.1-4.9-13.2c-4.5-7.8-11.1-12.7-19.9-14.4c-8.9-1.7-17.6-1.2-26,2.4c-9.7,4.1-16.4,11.2-19.9,21
		C33,55.4,32.7,70.1,38,84.7c3,8.4,8.3,15.3,16.4,19.5c5.3,2.8,10.9,4,16.8,4.4c11.5,0.8,22.2-1.7,31.7-8.4c2.7-1.9,4.9-4.4,7.4-6.6
		c0.3-0.3,0.7-0.6,1-0.7c1.4-0.2,1.5-0.1,1.2,1.3c-0.9,4.8-1.8,9.6-2.8,14.5c-0.1,0.3-0.4,0.8-0.7,0.9c-11.5,4.4-23.3,6.9-35.7,6.5
		c-8-0.3-15.7-1.7-22.9-5.3c-11.7-5.9-18.9-15.4-22.3-27.9c-2.4-8.6-2.8-17.5-2.2-26.4c0.5-7,1.8-13.8,4.8-20.1
		c6-13,16.3-20.9,29.9-24.8c6.4-1.8,13-2.3,19.7-2.1c10.5,0.3,20.7,2.3,30.6,5.7c0.9,0.3,1.2,0.7,1.1,1.6c-0.3,4.3-0.5,8.5-0.8,12.8
		C111.2,29.4,111.3,29.4,111.4,29.5z"/>
	<path class="st0" d="M145,65.3c-0.1,1.6-0.2,3.1-0.2,4.7c-0.1,2-0.2,3.9-0.2,5.9c-0.2,6.1-0.5,12.1-0.7,18.2
		c-0.1,3.6,0.3,7.1,1.6,10.5c1.8,4.7,5.3,7.5,10.2,8.5c0.5,0.1,1.3-0.2,1.3,0.9c0,1-0.1,1.2-1.2,1.1c-7.5-0.6-15-1.5-22.5-0.8
		c-3.1,0.3-6.2,0.5-9.3,0.8c-0.3,0-0.7-0.2-1-0.2c0.2-0.5,0.2-1.5,0.5-1.6c7.7-2.6,10.3-9,11.8-16c1.2-5.2,1.2-10.5,1.4-15.9
		c0.6-12.8,1.1-25.6,1.7-38.5c0.3-6.9,0.6-13.8,0.8-20.7c0-0.5-0.2-1.1-0.6-1.5c-3.9-4.5-8.9-7.1-14.6-8.7c-0.4-0.1-0.9-0.5-1-0.8
		c-0.2-0.9-0.1-1.3,1.2-1.2c4.5,0.4,9,0.6,13.5,0.8c2.9,0.2,5.8,0.3,8.6,0.5c0.4,0,0.8,0.5,1,0.9c3.7,7.7,7.3,15.5,11,23.3
		c3.6,7.7,7.3,15.4,10.9,23.2c0.2,0.4,0.4,0.6,0.6,1c0.9,1.9,1.7,3.8,2.6,5.7c0.8,1.6,1.6,3.3,2.4,4.9c0.8,1.9,1.7,3.8,2.5,5.7
		c4.5,9.6,9,19.2,13.6,28.8c0.4,0.8,0.4,1.4,0,2.2c-1.3,2.7-2.6,5.4-4,8.3c-13.5-28.6-26.8-57.1-40.2-85.6c-0.1,0-0.2,0-0.2,0
		c-0.4,10-0.9,19.9-1.3,29.9C145.2,61.4,145.1,63.3,145,65.3z"/>
	<path class="st0" d="M252.3,77c0.3,7.1,0.2,14.3,1.7,21.2c0.6,2.6,1.5,5.2,2.6,7.6c1.9,4,5.2,6.2,9.5,7.1c0.5,0.1,1.3-0.2,1.3,0.8
		c0,1-0.1,1.3-1.3,1.2c-6.4-0.5-12.8-0.8-19.2-1.1c-0.8,0-1.2-0.2-1.2-1.1c-0.3-7.6-0.7-15.3-1-22.9c-0.5-9.8-0.9-19.6-1.3-29.5
		c-0.4-9.4-0.9-18.8-1.3-28.2c-0.3-6.5-0.6-13-0.9-19.5c-0.1-1.6-0.1-1.5,1.5-1.6c7-0.4,14-0.9,20.9-1.3c0.3,0,0.6,0.2,0.9,0.3
		c-0.2,0.5,0.5,1.3-0.5,1.5c-1.3,0.3-2.7,0.7-3.8,1.3c-5.8,2.8-8.9,7.6-9.4,13.8c-0.5,5.5-0.1,11.2,0,16.8c0.1,4.5,0.4,9,0.6,13.4
		c0.2,3,0.3,5.9,0.4,8.9c0.1,1.8,0.2,3.5,0.3,5.3C252.1,73.2,252.2,75.1,252.3,77z"/>
	<path class="st0" d="M29,25.4c-3.3,4.9-5.9,10.1-7.6,15.7c-2.8,9.3-3.3,18.8-2.8,28.3c0.4,7.3,1.7,14.5,4.4,21.4
		c1.9,4.8,4.5,9.2,8,13.1c0.2,0.2,0.3,0.4,0.4,0.8c-0.3-0.1-0.7-0.3-1-0.5c-7.3-3.7-12.2-9.6-15.7-16.9c-4.5-9.3-5.8-19.1-5-29.4
		c0.6-7.4,3-14.3,6.6-20.7c2.9-5.1,7.1-8.9,12.2-11.8C28.7,25.5,28.8,25.4,29,25.4z"/>
	<path class="st0" d="M252.3,77c-0.1-1.9-0.2-3.9-0.3-5.8c11.8,1,23.5,2.6,34.6,7.2c6.3,2.6,12.2,5.8,17.3,10.4
		c3.2,2.9,5.7,6.3,7.1,10.3c0.2,0.5,0.2,1.1,0.3,1.7c-0.9-0.1-1.9,0-2.5-0.5c-1.6-1.3-3-2.8-4.6-4.2c-7.7-6.5-16.5-11-26-14.2
		c-6.2-2.1-12.6-3.6-19.1-4.3C256.8,77.4,254.5,77.2,252.3,77z"/>
	<path class="st0" d="M124.5,70.1c3.4,0,6.9,0,10.3,0c0.9,0,1.2,0.3,1.1,1.1c-0.1,1.2-0.1,2.5,0,3.7c0,0.9-0.2,1.1-1.1,1.1
		c-4,0.2-8,0.5-11.9,1.6c-3.5,1.1-6.4,3-8.1,6.4c-0.3,0.5-2.8,0.9-3.1,0.5c-0.1-0.1,0-0.4,0-0.7c0.3-2.2,0.5-4.4,0.8-6.6
		c0.2-2.1,0.5-4.2,0.7-6.3c0-0.7,0.3-0.9,1-0.9C117.5,70.1,121,70.1,124.5,70.1z"/>
	<path class="st0" d="M111.7,50.4c0.1,0,0.2,0,0.3-0.1c1.4-0.2,2.3,0.2,3,1.6c1.8,3.7,5.3,5.4,9.1,6c3.5,0.6,7.1,0.9,10.6,1.2
		c1,0.1,1.3,0.3,1.2,1.3c-0.1,1.3,0,2.6,0,4c0,0.6-0.2,0.8-0.7,0.8c-7.1,0-14.2,0-21.3,0c-0.2,0-0.7-0.3-0.7-0.5
		C112.6,60,112.1,55.2,111.7,50.4z"/>
	<path class="st0" d="M144.6,75.9c0.1-2,0.2-3.9,0.2-5.9c0.9,0,1.8,0.1,2.8,0.1c5.1,0,10.2,0,15.3,0c0.8,0,1.2,0.3,1.5,1
		c0.7,1.6,1.4,3.1,2.2,4.8c-0.8,0-1.4,0-2,0C157.9,75.8,151.2,75.8,144.6,75.9z"/>
	<path class="st0" d="M205.5,75.7c0.8-1.9,1.6-3.8,2.5-5.7c4.2,0,8.5,0,12.7,0.1c1.7,0,3.4,0.1,5,0c0.8,0,1,0.3,1,1
		c-0.1,1.3,0,2.6,0,4c0,0.2-0.4,0.7-0.6,0.7C219.1,75.8,212.3,75.8,205.5,75.7z"/>
	<path class="st0" d="M251.8,65.9c-0.2-3-0.3-5.9-0.4-8.9c2-0.6,3.9-1.1,6-1.7c0.1,0.8,0.1,1.7,0.3,2.6c0.5,2.6,1.8,4.7,4.1,6
		c2.6,1.5,5.3,2.8,8,4.3c0.3,0.2,0.7,0.3,0.8,0.4C264.4,67.7,258.1,66.8,251.8,65.9z"/>
	<path class="st0" d="M210.3,65.2c0.8-1.9,1.7-3.8,2.5-5.8c4.2,0,8.5,0.1,12.7,0c1,0,1.3,0.3,1.2,1.3c-0.1,1.2,0,2.5,0,3.7
		c0,0.6-0.1,0.8-0.8,0.8C220.6,65.2,215.5,65.2,210.3,65.2z"/>
	<path class="st0" d="M145,65.3c0.1-2,0.2-3.9,0.3-5.9c4.2,0,8.5,0.1,12.7,0c0.8,0,1.2,0.2,1.5,1c0.7,1.6,1.4,3.1,2.2,4.9
		C156,65.3,150.5,65.3,145,65.3z"/>
	<path class="st0" d="M188.9,65.2c-0.9-1.9-1.8-3.8-2.6-5.7c5.4,0,10.8,0,16.3,0c-0.8,1.8-1.6,3.6-2.5,5.3c-0.1,0.3-0.7,0.4-1.1,0.4
		C195.6,65.2,192.3,65.2,188.9,65.2z"/>
	<path class="st0" d="M236.5,65.5c-0.1-2.2-0.2-4.4-0.3-6.6c1.6-0.1,3.3-0.1,4.9-0.2c0.7,0,0.9,0.1,0.9,0.8c0,1.7,0,3.4,0,5
		c0,0.7-0.2,0.9-0.9,0.9C239.6,65.5,238,65.5,236.5,65.5z"/>
	<path class="st0" d="M172.5,65.2c-0.9-1.9-1.7-3.8-2.6-5.7c1.7,0,3.4-0.1,5.2,0c0.3,0,0.7,0.2,0.8,0.4c0.8,1.7,1.6,3.4,2.5,5.3
		C176.4,65.2,174.4,65.2,172.5,65.2z"/>
	<path class="st0" d="M177.5,75.9c-0.8-1.9-1.7-3.8-2.5-5.7c1.7,0,3.4-0.1,5.1-0.1c0.3,0,0.7,0.3,0.8,0.5c0.7,1.5,1.4,3,2.1,4.5
		c0.3,0.7-0.1,0.7-0.6,0.7C180.8,75.8,179.1,75.8,177.5,75.9z"/>
	<path class="st0" d="M237,76.1c-0.1-1.9-0.1-3.8-0.2-5.7c1.4,0,2.9,0.1,4.3,0.1c0.6,0,1,0.1,0.9,0.9c-0.1,1.4,0,2.7,0,4.1
		c0,0.7-0.2,0.7-0.8,0.7C239.8,76.1,238.4,76.1,237,76.1z"/>
	<path class="st0" d="M193.9,75.8c-0.9-1.9-1.7-3.8-2.6-5.6c2.1,0,4.1,0,6.3,0c-0.8,1.8-1.6,3.6-2.5,5.3
		C195,75.7,194.3,75.7,193.9,75.8z"/>
	<path class="st0" d="M31.9,104.7C31.9,104.8,31.8,104.8,31.9,104.7c-0.1,0-0.1,0-0.1,0C31.8,104.7,31.8,104.7,31.9,104.7
		C31.8,104.7,31.9,104.7,31.9,104.7z"/>
</g>
</svg>
